<svg aria-hidden="true" style="position: absolute; width: 0; height: 0; overflow: hidden;" version="1.1" xmlns="http://www.w3.org/2000/svg" xmlns:xlink="http://www.w3.org/1999/xlink">
<defs>
<symbol id="icon-jakub-tursky-logo" viewBox="0 0 68 32">
<path d="M16 8v-8l-16 16 16 16 32-32h-8l-24 24-8-8zM52 24v8l16-16-16-16-32 32h8l24-24 8 8z"></path>
</symbol>
<symbol id="icon-minus" viewBox="0 0 32 32">
<path d="M0 13.15h32v5.7h-32v-5.7z"></path>
</symbol>
<symbol id="icon-plus" viewBox="0 0 32 32">
<path d="M19.429 13.143c-0.316 0-0.571-0.256-0.571-0.571v-12.571h-5.714v12.571c0 0.316-0.256 0.571-0.571 0.571h-12.571v5.714h12.571c0.316 0 0.571 0.256 0.571 0.571v12.571h5.714v-12.571c0-0.316 0.256-0.571 0.571-0.571h12.571v-5.714z"></path>
</symbol>
<symbol id="icon-eye-closed" viewBox="0 0 32 32">
<path d="M19.771 12.229c-0.26-0.26-0.683-0.26-0.943 0s-0.26 0.684 0 0.943c0.755 0.755 1.172 1.759 1.172 2.828 0 2.205-1.795 4-4 4-1.069 0-2.073-0.416-2.828-1.172-0.26-0.26-0.683-0.26-0.943 0-0.26 0.259-0.26 0.683 0 0.943 1.005 1.008 2.345 1.563 3.771 1.563 2.941 0 5.333-2.392 5.333-5.333 0-1.425-0.555-2.765-1.563-3.771z"></path>
<path d="M16.929 10.758c-0.303-0.053-0.612-0.092-0.929-0.092-2.941 0-5.333 2.392-5.333 5.333 0 0.317 0.039 0.627 0.093 0.929 0.057 0.323 0.339 0.551 0.655 0.551 0.039 0 0.077-0.003 0.117-0.011 0.361-0.064 0.604-0.411 0.54-0.772-0.041-0.227-0.072-0.457-0.072-0.697 0-2.205 1.795-4 4-4 0.24 0 0.471 0.031 0.697 0.071 0.355 0.072 0.708-0.179 0.772-0.54s-0.179-0.708-0.54-0.772z"></path>
<path d="M31.841 15.569c-0.151-0.179-3.757-4.388-8.732-6.965-0.323-0.169-0.729-0.041-0.899 0.287-0.169 0.327-0.041 0.729 0.287 0.899 3.832 1.984 6.893 5.080 7.94 6.211-1.589 1.721-7.844 8-14.437 8-2.237 0-4.492-0.54-6.704-1.607-0.328-0.161-0.729-0.021-0.889 0.311-0.161 0.331-0.021 0.729 0.311 0.889 2.393 1.156 4.844 1.74 7.283 1.74 8.215 0 15.535-8.539 15.843-8.903 0.211-0.248 0.209-0.612-0.001-0.861z"></path>
<path d="M20.375 7.434c-1.517-0.511-2.989-0.768-4.375-0.768-8.215 0-15.535 8.539-15.843 8.903-0.195 0.229-0.211 0.563-0.037 0.812 0.092 0.132 2.296 3.261 6.116 5.799 0.113 0.076 0.24 0.112 0.368 0.112 0.215 0 0.427-0.104 0.555-0.3 0.204-0.305 0.12-0.72-0.187-0.923-2.805-1.865-4.725-4.117-5.444-5.033 1.535-1.667 7.831-8.036 14.472-8.036 1.241 0 2.571 0.235 3.949 0.697 0.349 0.125 0.728-0.068 0.844-0.419 0.117-0.349-0.069-0.727-0.419-0.844z"></path>
<path d="M27.804 4.196c-0.26-0.26-0.683-0.26-0.943 0l-22.667 22.667c-0.26 0.26-0.26 0.683 0 0.943 0.131 0.129 0.301 0.195 0.472 0.195s0.341-0.065 0.471-0.195l22.667-22.667c0.26-0.26 0.26-0.683 0-0.943z"></path>
</symbol>
<symbol id="icon-eye" viewBox="0 0 32 32">
<path d="M31.881 15.621c-0.252-0.367-6.308-8.955-15.882-8.955-8.215 0-15.535 8.539-15.843 8.903-0.209 0.248-0.209 0.612 0 0.861 0.308 0.364 7.628 8.903 15.843 8.903s15.535-8.539 15.843-8.903c0.193-0.229 0.211-0.561 0.039-0.809zM16 24c-6.585 0-12.847-6.28-14.438-8 1.588-1.721 7.843-8 14.438-8 7.705 0 13.144 6.271 14.472 7.964-1.533 1.665-7.831 8.036-14.472 8.036z"></path>
<path d="M16 10.667c-2.941 0-5.333 2.392-5.333 5.333s2.392 5.333 5.333 5.333 5.333-2.392 5.333-5.333-2.392-5.333-5.333-5.333zM16 20c-2.205 0-4-1.795-4-4s1.795-4 4-4 4 1.795 4 4-1.795 4-4 4z"></path>
</symbol>
</defs>
</svg>
